<?xml version="1.0" encoding="UTF-8"?>
<!DOCTYPE svg PUBLIC "-//W3C//DTD SVG 1.1//EN" "http://www.w3.org/Graphics/SVG/1.1/DTD/svg11.dtd">
<svg xmlns="http://www.w3.org/2000/svg" version="1.1" width="50px" height="50px" style="shape-rendering:geometricPrecision; text-rendering:geometricPrecision; image-rendering:optimizeQuality; fill-rule:evenodd; clip-rule:evenodd" xmlns:xlink="http://www.w3.org/1999/xlink">
<g><path style="opacity:0.757" fill="#FFFFFF" d="M 12.5,2.5 C 14.5273,2.33788 16.5273,2.50454 18.5,3C 21.1193,5.12111 23.1193,7.62111 24.5,10.5C 25.8807,7.62111 27.8807,5.12111 30.5,3C 37.6959,1.85741 40.1959,4.69074 38,11.5C 36.4423,13.7676 34.2756,14.9343 31.5,15C 30.5494,15.7175 30.3828,16.5509 31,17.5C 36.0717,18.4714 41.2384,18.8047 46.5,18.5C 46.5,27.1667 46.5,35.8333 46.5,44.5C 31.8333,44.5 17.1667,44.5 2.5,44.5C 2.5,35.8333 2.5,27.1667 2.5,18.5C 8.50924,18.6662 14.5092,18.4995 20.5,18C 17.4661,15.6203 14.2995,13.4537 11,11.5C 9.01028,8.12612 9.51028,5.12612 12.5,2.5 Z M 17.5,6.5 C 16.5,6.5 15.5,6.5 14.5,6.5C 13.9553,10.1716 13.6219,9.8383 13.5,5.5C 15.099,5.23219 16.4324,5.56552 17.5,6.5 Z M 31.5,6.5 C 32.5676,5.56552 33.901,5.23219 35.5,5.5C 35.3781,9.8383 35.0447,10.1716 34.5,6.5C 33.5,6.5 32.5,6.5 31.5,6.5 Z M 30.5,7.5 C 30.2865,9.14387 30.6198,10.6439 31.5,12C 30.0692,12.4652 28.9025,13.2986 28,14.5C 28.2619,11.9735 29.0952,9.64017 30.5,7.5 Z M 16.5,11.5 C 17.4584,11.0472 18.2917,10.3805 19,9.5C 24.8919,16.6466 24.0586,17.3132 16.5,11.5 Z M 35.5,28.5 C 31.2981,25.4838 28.1315,21.8172 26,17.5C 29.7729,20.7635 32.9396,24.4302 35.5,28.5 Z M 10.5,20.5 C 14.8461,20.3343 19.1794,20.501 23.5,21C 17.6202,22.0469 14.9536,25.5469 15.5,31.5C 14.9536,37.4531 17.6202,40.9531 23.5,42C 16.3584,43.8325 10.1918,42.3325 5,37.5C 4.33333,33.5 4.33333,29.5 5,25.5C 7.32844,24.3365 9.16177,22.6698 10.5,20.5 Z M 34.5,21.5 C 35.6009,20.4017 36.9343,20.235 38.5,21C 46.481,27.8556 46.481,34.8556 38.5,42C 34.1667,42.6667 29.8333,42.6667 25.5,42C 31.2593,40.9044 34.0926,37.4044 34,31.5C 35.0195,32.6872 36.1861,33.6872 37.5,34.5C 38.657,31.2156 38.8236,27.8823 38,24.5C 36.9609,23.2899 35.7942,22.2899 34.5,21.5 Z M 21.5,24.5 C 22.7348,24.7214 23.7348,25.3881 24.5,26.5C 26.5526,24.0644 28.386,24.3977 30,27.5C 31.4804,32.1467 30.3137,35.8133 26.5,38.5C 25.1667,35.8333 23.8333,35.8333 22.5,38.5C 18.6863,35.8133 17.5196,32.1467 19,27.5C 20.045,26.6266 20.8783,25.6266 21.5,24.5 Z"/></g>
<g><path style="opacity:1" fill="#FFFFFF" d="M 23.5,28.5 C 24.6935,28.9704 25.3601,29.9704 25.5,31.5C 25.1667,32.5 24.8333,33.5 24.5,34.5C 23.5344,32.604 23.2011,30.604 23.5,28.5 Z"/></g>
</svg>
