<svg version="1.1" id="Layer_1" xmlns="http://www.w3.org/2000/svg" xmlns:xlink="http://www.w3.org/1999/xlink" x="0px" y="0px"
	 width="100%" viewBox="0 0 1925 733" enable-background="new 0 0 1925 733" xml:space="preserve">
<path fill="#201F1D" opacity="1.000000" stroke="none" 
	d="
M1.000003,649.000000 
	C1.000000,433.036652 1.000000,217.073303 1.000000,1.000000 
	C574.366028,1.000000 1147.732056,1.000000 1721.677734,1.383383 
	C1705.172607,56.717232 1688.091309,111.668739 1671.002197,166.617905 
	C1646.558105,245.217056 1622.135376,323.822937 1597.651367,402.409729 
	C1582.170166,452.100403 1566.573608,501.755127 1551.065552,551.437500 
	C1534.612671,604.147278 1518.171265,656.860779 1501.808838,709.598633 
	C1499.307495,717.660522 1497.258301,725.862671 1495.000000,734.000000 
	C1093.633911,734.000000 692.267883,734.000000 290.137543,733.823364 
	C266.634644,726.820557 243.924332,719.898376 221.151932,713.186768 
	C160.890747,695.426331 100.610466,677.730530 40.319241,660.072327 
	C27.252722,656.245300 14.108453,652.683777 1.000003,649.000000 
z"/>
<path fill="#387c44" opacity="1.000000" stroke="none" 
	d="
M1803.000000,1.000002 
	C1843.985352,1.000000 1884.970703,1.000000 1925.956055,0.999999 
	C1925.970703,1.151960 1925.998291,1.303922 1925.998291,1.455883 
	C1926.000122,245.535324 1926.000000,489.614777 1926.000000,734.000000 
	C1810.310181,734.000000 1694.619995,734.000000 1578.480225,733.617554 
	C1583.688477,714.616943 1589.306274,695.986389 1595.011841,677.382812 
	C1612.717773,619.648926 1630.436768,561.919067 1648.189575,504.199677 
	C1661.687256,460.314850 1675.277588,416.458466 1688.766113,372.570801 
	C1702.892944,326.606293 1716.931274,280.614563 1731.038208,234.643936 
	C1746.945312,182.806961 1762.868530,130.974930 1778.818970,79.151253 
	C1786.840454,53.088867 1794.937256,27.049679 1803.000000,1.000002 
z"/>
<path fill="#387c44" opacity="1.000000" stroke="none" 
	d="
M1495.468628,734.000000 
	C1497.258301,725.862671 1499.307495,717.660522 1501.808838,709.598633 
	C1518.171265,656.860779 1534.612671,604.147278 1551.065552,551.437500 
	C1566.573608,501.755127 1582.170166,452.100403 1597.651367,402.409729 
	C1622.135376,323.822937 1646.558105,245.217056 1671.002197,166.617905 
	C1688.091309,111.668739 1705.172607,56.717232 1722.128662,1.383383 
	C1733.687622,1.000000 1745.375122,1.000000 1757.645264,1.395988 
	C1757.829346,3.402555 1757.489502,5.030382 1757.023438,6.621199 
	C1747.809692,38.060486 1738.550537,69.486496 1729.362183,100.933258 
	C1710.383667,165.887283 1691.464966,230.858795 1672.477539,295.810211 
	C1651.385498,367.961761 1630.253662,440.101624 1609.121948,512.241577 
	C1589.019409,580.868591 1568.877075,649.484131 1548.814453,718.122864 
	C1547.289307,723.341064 1546.259888,728.704224 1545.000000,734.000000 
	C1528.645752,734.000000 1512.291504,734.000000 1495.468628,734.000000 
z"/>
<path fill="#22201C" opacity="1.000000" stroke="none" 
	d="
M1545.468750,734.000000 
	C1546.259888,728.704224 1547.289307,723.341064 1548.814453,718.122864 
	C1568.877075,649.484131 1589.019409,580.868591 1609.121948,512.241577 
	C1630.253662,440.101624 1651.385498,367.961761 1672.477539,295.810211 
	C1691.464966,230.858795 1710.383667,165.887283 1729.362183,100.933258 
	C1738.550537,69.486496 1747.809692,38.060486 1757.023438,6.621199 
	C1757.489502,5.030382 1757.829346,3.402555 1758.114014,1.395988 
	C1772.687622,1.000000 1787.375122,1.000000 1802.531372,1.000002 
	C1794.937256,27.049679 1786.840454,53.088867 1778.818970,79.151253 
	C1762.868530,130.974930 1746.945312,182.806961 1731.038208,234.643936 
	C1716.931274,280.614563 1702.892944,326.606293 1688.766113,372.570801 
	C1675.277588,416.458466 1661.687256,460.314850 1648.189575,504.199677 
	C1630.436768,561.919067 1612.717773,619.648926 1595.011841,677.382812 
	C1589.306274,695.986389 1583.688477,714.616943 1578.015259,733.617554 
	C1567.312378,734.000000 1556.624878,734.000000 1545.468750,734.000000 
z"/>
<path fill="#387c44" opacity="1.000000" stroke="none" 
	d="
M1.000003,649.468628 
	C14.108453,652.683777 27.252722,656.245300 40.319241,660.072327 
	C100.610466,677.730530 160.890747,695.426331 221.151932,713.186768 
	C243.924332,719.898376 266.634644,726.820557 289.686646,733.823364 
	C193.779449,734.000000 97.558884,734.000000 1.000000,734.000000 
	C1.000000,705.980042 1.000000,677.958679 1.000003,649.468628 
z"/>
</svg>